<svg height="26" viewBox="0 0 29 26" width="29" xmlns="http://www.w3.org/2000/svg"><path d="m18.78 16.88c-1.638 1.173-3.845 1.819-6.215 1.819-.77 0-1.536-.07-2.273-.209l-.893-.167-.677.597c-.189.168-.463.337-.786.501l.484-1.317-1.33-.753c-1.912-1.082-3.007-2.628-3.007-4.241 0-1.384.805-2.723 2.267-3.771 1.638-1.172 3.845-1.819 6.215-1.819s4.577.647 6.215 1.819c1.462 1.048 2.268 2.387 2.268 3.771 0 1.383-.806 2.722-2.268 3.77zm-6.215-11.162c-5.698 0-10.316 3.309-10.316 7.392 0 2.353 1.534 4.449 3.925 5.802-.455 1.238-1.17 1.858-1.728 2.397-.538.522-.342 1.209.805.952.796-.179 3.478-.924 4.697-2 .836.157 1.713.24 2.617.24 5.697 0 10.317-3.309 10.317-7.391 0-4.083-4.62-7.392-10.317-7.392zm11.951 16.833c2.391-1.354 3.925-3.449 3.925-5.802 0-2.368-1.555-4.477-3.973-5.829.221.707.335 1.44.335 2.19 0 2.593-1.353 4.992-3.811 6.752-2.274 1.63-5.268 2.528-8.427 2.528-.394 0-.787-.016-1.179-.044 1.808 1.118 4.164 1.794 6.739 1.794.904 0 1.781-.083 2.617-.24 1.219 1.076 3.901 1.821 4.697 2 1.147.256 1.343-.43.804-.952-.557-.54-1.273-1.16-1.727-2.397zm-19.812-15.43c1.361-.976 3.004-1.667 4.792-2.037l.627-3.602c.049.016.099.023.153.023.274 0 .495-.217.495-.486 0-.268-.221-.486-.495-.486-.273 0-.495.218-.495.486 0 .113.04.217.105.299l-1.851 1.304-1.267-1.715c.148-.084.247-.24.247-.421 0-.269-.221-.486-.495-.486-.272 0-.494.217-.494.486 0 .206.13.382.314.452l-.955 2.542-2.404-.85c.012-.042.019-.086.019-.131 0-.27-.222-.487-.495-.487-.274 0-.495.217-.495.487 0 .268.221.485.495.485.044 0 .087-.006.127-.017l.599 1.972-2.263.789c-.061-.2-.25-.346-.473-.346-.274 0-.495.218-.495.487 0 .268.221.486.495.486.194 0 .362-.111.443-.271l3.143 1.52c.198-.167.406-.328.623-.483zm11.059 5.871c0 .434-.358.786-.8.786s-.8-.352-.8-.786c0-.435.358-.787.8-.787s.8.352.8.787zm-2.526 0c0 .434-.358.786-.801.786-.442 0-.801-.352-.801-.786 0-.435.359-.787.801-.787.443 0 .801.352.801.787zm-2.527 0c0 .434-.359.786-.801.786s-.801-.352-.801-.786c0-.435.359-.787.801-.787s.801.352.801.787z" fill="#fff" fill-rule="evenodd"/></svg>